<svg width="12" height="12" viewBox="0 0 12 12" fill="none" xmlns="http://www.w3.org/2000/svg">
<path d="M6.83036 7.40848C7.41964 6.8192 7.71429 6.11161 7.71429 5.28571C7.71429 4.45982 7.41964 3.75446 6.83036 3.16964C6.24554 2.58036 5.54018 2.28571 4.71429 2.28571C3.88839 2.28571 3.1808 2.58036 2.59152 3.16964C2.0067 3.75446 1.71429 4.45982 1.71429 5.28571C1.71429 6.11161 2.0067 6.8192 2.59152 7.40848C3.1808 7.9933 3.88839 8.28571 4.71429 8.28571C5.54018 8.28571 6.24554 7.9933 6.83036 7.40848ZM11.1429 10.8571C11.1429 11.0893 11.058 11.2902 10.8884 11.4598C10.7188 11.6295 10.5179 11.7143 10.2857 11.7143C10.0446 11.7143 9.84375 11.6295 9.68304 11.4598L7.38616 9.16964C6.58705 9.72321 5.69643 10 4.71429 10C4.07589 10 3.46429 9.87723 2.87946 9.6317C2.29911 9.3817 1.79688 9.04687 1.37277 8.62723C0.953125 8.20312 0.618304 7.70089 0.368304 7.12054C0.122768 6.53571 0 5.92411 0 5.28571C0 4.64732 0.122768 4.03795 0.368304 3.45759C0.618304 2.87277 0.953125 2.37054 1.37277 1.95089C1.79688 1.52679 2.29911 1.19196 2.87946 0.946428C3.46429 0.696428 4.07589 0.571428 4.71429 0.571428C5.35268 0.571428 5.96205 0.696428 6.54241 0.946428C7.12723 1.19196 7.62946 1.52679 8.04911 1.95089C8.47321 2.37054 8.80804 2.87277 9.05357 3.45759C9.30357 4.03795 9.42857 4.64732 9.42857 5.28571C9.42857 6.26786 9.15179 7.15848 8.59821 7.95759L10.8951 10.2545C11.0603 10.4196 11.1429 10.6205 11.1429 10.8571Z" fill="black" fill-opacity="0.25"/>
</svg>
